#!OML:ASF E:\Steps\Project 1\Capture day 1\Session 2\Subject.ASF
:FULLY-SPECIFIED
:DEGREES
126
root 19.3395 16.3836 36.5292 -152.81 -1.52456 178.231
lowerback -30.9064 -1.62477 -6.82604
upperback -2.21625 -0.587974 -0.659933
thorax 13.6808 -1.02238 2.651
lowerneck -5.92955 -2.25073 3.70333
upperneck 11.156 -3.62992 -0.53236
head 4.69883 -1.76553 -1.06508
rclavicle 5.26779e-015 -3.97569e-015
rhumerus -35.1363 -18.6749 -79.7924
rradius 31.3781
rwrist -2.36088
rhand -8.251 -56.0301
rfingers 7.12502
rthumb 17.6673 -85.2475
lclavicle 5.26779e-015 -3.97569e-015
lhumerus -27.5104 1.88476 84.0137
lradius 23.3562
lwrist -3.73588
lhand -23.6811 -9.78766
lfingers 7.12502
lthumb 2.78533 20.1739
rfemur -22.0964 6.98874 18.4565
rtibia 5.35152
rfoot -18.3912 -7.7119
rtoes -35.1346
lfemur -24.1463 -8.67045 -19.6008
ltibia 7.27663
lfoot -7.9138 1.54249
ltoes -39.4096
127
root 19.3405 16.3816 36.5297 -152.731 -1.49409 178.225
lowerback -31.0011 -1.63055 -6.83018
upperback -2.24006 -0.597766 -0.652122
thorax 13.6951 -1.03085 2.65524
lowerneck -5.96739 -2.26619 3.56209
upperneck 11.2502 -3.67065 -0.325783
head 4.74658 -1.78193 -0.974611
rclavicle 2.88238e-015 -2.38542e-014
rhumerus -35.2041 -18.6734 -79.7605
rradius 31.3099
rwrist -2.30669
rhand -8.22694 -55.7331
rfingers 7.12502
rthumb 17.6905 -84.9484
lclavicle 2.88238e-015 -2.38542e-014
lhumerus -27.5635 1.94232 83.9977
lradius 23.3537
lwrist -3.67454
lhand -23.714 -9.88287
lfingers 7.12502
lthumb 2.75359 20.0791
rfemur -22.2169 6.87826 18.4546
rtibia 5.38468
rfoot -18.457 -7.56191
rtoes -34.8623
lfemur -24.243 -8.67543 -19.576
ltibia 7.28225
lfoot -7.88155 1.58745
ltoes -38.5545
128
root 19.3435 16.3833 36.5302 -152.776 -1.48295 178.155
lowerback -30.9489 -1.67233 -6.93103
upperback -2.2257 -0.617169 -0.650381
thorax 13.6899 -1.04384 2.7047
lowerneck -6.06895 -2.20707 3.62547
upperneck 11.3131 -3.6179 -0.224777
head 4.79311 -1.74772 -0.95194
rclavicle 6.06293e-015 -5.56597e-015
rhumerus -35.3018 -18.6987 -79.6778
rradius 31.1907
rwrist -2.03303
rhand -7.86164 -55.1982
rfingers 7.12502
rthumb 18.042 -84.3814
lclavicle 6.06293e-015 -5.56597e-015
lhumerus -27.5777 2.14537 83.9406
lradius 23.3178
lwrist -3.81014
lhand -23.4678 -10.1812
lfingers 7.12502
lthumb 2.99129 19.7776
rfemur -22.1511 6.75907 18.4227
rtibia 5.35861
rfoot -18.409 -7.5123
rtoes -35.5037
lfemur -24.1858 -8.63113 -19.6683
ltibia 7.29512
lfoot -7.9397 1.48655
ltoes -38.629
129
root 19.3429 16.38 36.5282 -152.706 -1.42603 178.121
lowerback -31.0817 -1.66309 -6.94262
upperback -2.21049 -0.590336 -0.678664
thorax 13.762 -1.03622 2.68757
lowerneck -6.05393 -2.31236 3.77129
upperneck 11.7365 -3.74789 -0.47506
head 4.43317 -1.82277 -0.976711
rclavicle -3.72721e-015 9.93923e-015
rhumerus -35.3977 -18.8666 -79.544
rradius 31.0617
rwrist -1.71806
rhand -7.39239 -54.2752
rfingers 7.12502
rthumb 18.4934 -83.4162
lclavicle -3.72721e-015 9.93923e-015
lhumerus -27.5401 2.29062 83.8907
lradius 23.2205
lwrist -4.05409
lhand -22.8405 -10.6447
lfingers 7.12502
lthumb 3.59712 19.3047
rfemur -22.2582 6.54345 18.3898
rtibia 5.40357
rfoot -18.4514 -7.3037
rtoes -36.0372
lfemur -24.2545 -8.78723 -19.6718
ltibia 7.29928
lfoot -8.00684 1.62492
ltoes -38.5966
130
root 19.3437 16.3828 36.5294 -152.752 -1.44784 178.099
lowerback -31.0184 -1.66588 -6.9488
upperback -2.20248 -0.59108 -0.687865
thorax 13.7437 -1.03458 2.6822
lowerneck -6.12024 -2.43158 3.97702
upperneck 11.8436 -3.90348 -0.757661
head 4.46365 -1.90606 -1.10728
rclavicle 1.04362e-015 4.69132e-014
rhumerus -35.4481 -18.9829 -79.4867
rradius 31.0404
rwrist -1.74426
rhand -7.33854 -53.8166
rfingers 7.12502
rthumb 18.5452 -82.9526
lclavicle 1.04362e-015 4.69132e-014
lhumerus -27.5123 2.28722 83.8896
lradius 23.0912
lwrist -4.09915
lhand -23.0216 -10.0654
lfingers 7.12502
lthumb 3.42222 19.8869
rfemur -22.2122 6.32732 18.4268
rtibia 5.4125
rfoot -18.5433 -7.15185
rtoes -36.0605
lfemur -24.2314 -8.85849 -19.6905
ltibia 7.33868
lfoot -8.08061 1.63767
ltoes -39.1702
131
root 19.3451 16.3795 36.5321 -152.576 -1.42927 178.05
lowerback -31.1417 -1.67907 -6.95883
upperback -2.26857 -0.614968 -0.707408
thorax 13.7217 -1.0516 2.65289
lowerneck -6.16182 -2.52125 4.09844
upperneck 12.1072 -4.00694 -1.14761
head 4.53748 -1.97514 -1.25668
rclavicle -3.8763e-015 7.95139e-016
rhumerus -35.5013 -19.0221 -79.4915
rradius 31.0281
rwrist -1.81229
rhand -7.56995 -54.8126
rfingers 7.12502
rthumb 18.3226 -83.9697
lclavicle -3.8763e-015 7.95139e-016
lhumerus -27.5771 2.24083 83.8721
lradius 22.9481
lwrist -4.15036
lhand -23.3207 -10.0466
lfingers 7.12502
lthumb 3.13336 19.9102
rfemur -22.4607 7.08291 18.1924
rtibia 5.53379
rfoot -18.5938 -7.87097
rtoes -35.6159
lfemur -24.453 -8.70055 -19.7678
ltibia 7.38547
lfoot -8.11966 1.49984
ltoes -39.8668
132
root 19.3457 16.3776 36.5313 -152.531 -1.38714 177.975
lowerback -31.1903 -1.70577 -6.97899
upperback -2.28275 -0.642972 -0.733279
thorax 13.7279 -1.06753 2.62272
lowerneck -6.31005 -2.33324 3.92039
upperneck 12.0962 -3.79142 -0.713341
head 4.57772 -1.8502 -1.08555
rclavicle -2.18663e-015 -1.39149e-014
rhumerus -35.555 -19.0383 -79.485
rradius 30.9837
rwrist -1.73704
rhand -7.68054 -55.6322
rfingers 7.12502
rthumb 18.2162 -84.7992
lclavicle -2.18663e-015 -1.39149e-014
lhumerus -27.6442 2.25446 83.8471
lradius 22.8165
lwrist -4.31688
lhand -23.9705 -10.1694
lfingers 7.12502
lthumb 2.50587 19.7956
rfemur -22.4679 6.03671 18.2886
rtibia 5.41288
rfoot -18.6025 -6.74486
rtoes -35.3208
lfemur -24.4517 -8.56735 -19.8908
ltibia 7.31919
lfoot -8.07456 1.3645
ltoes -39.4937
133
root 19.3489 16.3771 36.5337 -152.503 -1.36355 177.941
lowerback -31.2107 -1.75515 -7.01655
upperback -2.27771 -0.695328 -0.715953
thorax 13.7474 -1.09434 2.64007
lowerneck -6.13516 -2.52367 4.02889
upperneck 12.0931 -3.99955 -1.16193
head 4.52976 -1.9756 -1.24873
rclavicle -3.37934e-015 3.93594e-014
rhumerus -35.5676 -18.995 -79.4692
rradius 30.9126
rwrist -1.64801
rhand -7.67459 -55.4164
rfingers 7.12502
rthumb 18.2219 -84.5829
lclavicle -3.37934e-015 3.93594e-014
lhumerus -27.6586 2.41519 83.8036
lradius 22.7251
lwrist -4.47518
lhand -24.1672 -9.82269
lfingers 7.12502
lthumb 2.31591 20.1445
rfemur -22.5208 6.18077 18.2392
rtibia 5.44338
rfoot -18.6139 -6.83348
rtoes -35.4451
lfemur -24.5353 -8.66276 -19.8891
ltibia 7.44018
lfoot -8.1476 1.43103
ltoes -39.0891
134
root 19.3486 16.3781 36.5327 -152.54 -1.38798 177.948
lowerback -31.2077 -1.77511 -6.98115
upperback -2.2528 -0.72996 -0.692193
thorax 13.7793 -1.10719 2.63344
lowerneck -6.36074 -2.3626 3.853
upperneck 12.1886 -3.81989 -0.794604
head 4.6132 -1.87158 -1.10332
rclavicle 8.49804e-015 1.59028e-015
rhumerus -35.5657 -18.9993 -79.4298
rradius 30.8115
rwrist -1.64286
rhand -7.77881 -55.5029
rfingers 7.12502
rthumb 18.1217 -84.6787
lclavicle 8.49804e-015 1.59028e-015
lhumerus -27.6871 2.50641 83.7955
lradius 22.6187
lwrist -4.54343
lhand -23.819 -9.2839
lfingers 7.12502
lthumb 2.65217 20.6794
rfemur -22.4815 6.60342 18.1467
rtibia 5.461
rfoot -18.5971 -7.31718
rtoes -35.6433
lfemur -24.5231 -8.90876 -19.8286
ltibia 7.49652
lfoot -8.15921 1.72883
ltoes -39.6011
135
root 19.3511 16.3781 36.5345 -152.496 -1.38449 177.952
lowerback -31.2299 -1.80052 -7.01004
upperback -2.2733 -0.762108 -0.648944
thorax 13.7688 -1.12505 2.68236
lowerneck -6.33596 -2.31506 3.63818
upperneck 12.1311 -3.76774 -0.492217
head 4.60303 -1.83822 -0.971723
rclavicle -1.10325e-014 -1.19271e-015
rhumerus -35.6035 -18.954 -79.3839
rradius 30.7605
rwrist -1.79367
rhand -7.88321 -56.248
rfingers 7.12502
rthumb 18.0212 -85.4331
lclavicle -1.10325e-014 -1.19271e-015
lhumerus -27.7502 2.54544 83.8209
lradius 22.5328
lwrist -4.51684
lhand -24.0946 -10.1067
lfingers 7.12502
lthumb 2.38599 19.8598
rfemur -22.5527 6.90807 18.1009
rtibia 5.50522
rfoot -18.5752 -7.63717
rtoes -35.5144
lfemur -24.6064 -8.85241 -19.8285
ltibia 7.5631
lfoot -8.13885 1.76528
ltoes -40.2737
136
root 19.3543 16.3779 36.5357 -152.446 -1.35052 177.977
lowerback -31.2826 -1.81744 -7.00951
upperback -2.29156 -0.790714 -0.617821
thorax 13.7736 -1.1405 2.70289
lowerneck -6.19914 -2.39553 3.7867
upperneck 12.1115 -3.8428 -0.850222
head 4.56165 -1.89074 -1.10707
rclavicle -6.95746e-016 3.69739e-014
rhumerus -35.6644 -18.9176 -79.3328
rradius 30.6907
rwrist -1.87417
rhand -7.90449 -56.6396
rfingers 7.12502
rthumb 18.0007 -85.8265
lclavicle -6.95746e-016 3.69739e-014
lhumerus -27.8172 2.65741 83.7903
lradius 22.4737
lwrist -4.51048
lhand -23.7901 -9.66265
lfingers 7.12502
lthumb 2.6801 20.3003
rfemur -22.6514 7.50803 18.0159
rtibia 5.59544
rfoot -18.6113 -8.14978
rtoes -35.273
lfemur -24.6971 -8.80444 -19.7798
ltibia 7.6172
lfoot -8.1205 1.77001
ltoes -40.0088
137
root 19.3574 16.3786 36.5366 -152.42 -1.37023 177.998
lowerback -31.2992 -1.83147 -6.99562
upperback -2.30499 -0.817142 -0.612185
thorax 13.7679 -1.15252 2.69039
lowerneck -6.19157 -2.39887 3.81885
upperneck 12.1566 -3.86203 -0.801506
head 4.57441 -1.89718 -1.09903
rclavicle 1.2921e-014 2.78299e-015
rhumerus -35.7075 -19.0431 -79.2629
rradius 30.514
rwrist -1.84665
rhand -7.96859 -56.636
rfingers 7.12502
rthumb 17.9391 -85.8287
lclavicle 1.2921e-014 2.78299e-015
lhumerus -27.8703 2.67389 83.746
lradius 22.3421
lwrist -4.43338
lhand -23.4246 -9.45121
lfingers 7.12502
lthumb 3.03301 20.507
rfemur -22.703 7.816 18.0006
rtibia 5.6403
rfoot -18.6235 -8.44966
rtoes -35.2584
lfemur -24.8173 -8.80175 -19.712
ltibia 7.76802
lfoot -8.16238 1.73585
ltoes -39.5222
138
root 19.3622 16.3784 36.5396 -152.373 -1.38614 178.003
lowerback -31.2788 -1.84611 -7.04428
upperback -2.33927 -0.829877 -0.600299
thorax 13.7202 -1.16155 2.72451
lowerneck -6.18723 -2.37661 3.78916
upperneck 12.177 -3.84069 -0.725748
head 4.58272 -1.88417 -1.07013
rclavicle -2.08724e-015 3.97569e-015
rhumerus -35.7583 -19.2958 -79.13
rradius 30.3025
rwrist -1.76021
rhand -7.94375 -56.6943
rfingers 7.12502
rthumb 17.963 -85.8848
lclavicle -2.08724e-015 3.97569e-015
lhumerus -27.9291 2.68672 83.7147
lradius 22.1578
lwrist -4.39783
lhand -23.7032 -9.76051
lfingers 7.12502
lthumb 2.76402 20.2013
rfemur -22.7531 7.35523 18.1483
rtibia 5.60088
rfoot -18.5494 -8.03552
rtoes -35.6343
lfemur -24.9497 -8.62753 -19.7179
ltibia 7.91198
lfoot -8.24719 1.52391
ltoes -39.3938
139
root 19.3601 16.3791 36.5325 -152.522 -1.30854 178.047
lowerback -31.2361 -1.81226 -6.97718
upperback -2.29843 -0.802653 -0.579366
thorax 13.748 -1.14311 2.72396
lowerneck -6.06063 -2.32524 3.8357
upperneck 12.0396 -3.76682 -0.714322
head 4.52046 -1.8461 -1.06608
rclavicle -8.89561e-015 -2.5842e-014
rhumerus -35.8172 -19.4988 -78.9477
rradius 30.0857
rwrist -1.54664
rhand -7.90967 -56.7235
rfingers 7.12502
rthumb 17.9957 -85.9109
lclavicle -8.89561e-015 -2.5842e-014
lhumerus -28.0286 2.9237 83.6734
lradius 22.0014
lwrist -4.58166
lhand -24.4476 -9.97465
lfingers 7.12502
lthumb 2.04512 19.9953
rfemur -22.539 6.98364 18.2556
rtibia 5.5109
rfoot -18.6439 -7.56924
rtoes -35.743
lfemur -24.6621 -8.70569 -19.7053
ltibia 7.74021
lfoot -8.22669 1.68407
ltoes -39.2811
